<svg xmlns="http://www.w3.org/2000/svg" width="142" height="31" viewBox="0 0 142 31" fill="none">
  <path d="M54.9535 19.7863C54.6339 20.8653 54.1276 21.7674 53.4345 22.4925C52.7438 23.2175 51.9253 23.7583 50.9815 24.1122C50.0377 24.4662 49.0004 24.6431 47.8698 24.6431C46.2156 24.6431 44.7876 24.2966 43.5807 23.6059C42.3739 22.9152 41.4473 21.9271 40.7984 20.6466C40.1495 19.366 39.8251 17.8298 39.8251 16.0429C39.8251 14.256 40.1495 12.7198 40.7984 11.4393C41.4473 10.1587 42.3764 9.17064 43.5807 8.47997C44.7851 7.7893 46.1984 7.44273 47.8182 7.44273C48.966 7.44273 50.0008 7.59758 50.9299 7.90973C51.8565 8.22189 52.6455 8.69872 53.2944 9.34023C53.9433 9.98175 54.4201 10.7904 54.7249 11.7686L51.5616 13.1107C51.274 12.098 50.8365 11.3778 50.2466 10.9477C49.6567 10.5176 48.8972 10.3037 47.9706 10.3037C47.0439 10.3037 46.2623 10.5225 45.579 10.9624C44.8957 11.4024 44.3697 12.0464 43.9986 12.8968C43.6274 13.7497 43.4431 14.7992 43.4431 16.0454C43.4431 17.2915 43.6152 18.3214 43.9617 19.1817C44.3083 20.0419 44.8171 20.6908 45.493 21.1308C46.1665 21.5708 46.9948 21.7895 47.973 21.7895C48.8849 21.7895 49.6714 21.5462 50.3375 21.0571C51.0036 20.5679 51.4706 19.8256 51.741 18.8302L54.9535 19.7912V19.7863Z" fill="#FF4228"/>
  <path d="M65.1464 7.44012C66.7981 7.44012 68.2237 7.78669 69.4232 8.47736C70.6201 9.16803 71.5443 10.1561 72.1932 11.4367C72.8421 12.7172 73.1665 14.2534 73.1665 16.0403C73.1665 17.8272 72.8421 19.3634 72.1932 20.644C71.5443 21.927 70.6201 22.9126 69.4232 23.6033C68.2262 24.294 66.8006 24.6405 65.1464 24.6405C63.4922 24.6405 62.0642 24.294 60.8574 23.6033C59.6505 22.9126 58.7239 21.9245 58.075 20.644C57.4261 19.3634 57.1017 17.8272 57.1017 16.0403C57.1017 14.2534 57.4261 12.7172 58.075 11.4367C58.7239 10.1561 59.653 9.16803 60.8574 8.47736C62.0617 7.78669 63.4922 7.44012 65.1464 7.44012ZM65.1464 10.2987C64.2026 10.2987 63.4013 10.5174 62.7426 10.9574C62.0839 11.3973 61.5824 12.0413 61.2383 12.8918C60.8918 13.7446 60.7197 14.7942 60.7197 16.0403C60.7197 17.2865 60.8918 18.3163 61.2383 19.1766C61.5849 20.0369 62.0863 20.6858 62.7426 21.1257C63.4013 21.5657 64.2001 21.7844 65.1464 21.7844C66.0927 21.7844 66.8669 21.5657 67.5256 21.1257C68.1844 20.6882 68.6858 20.0369 69.0299 19.1766C69.3764 18.3163 69.5485 17.2717 69.5485 16.0403C69.5485 14.8089 69.374 13.7422 69.0299 12.8918C68.6833 12.0413 68.1819 11.3949 67.5256 10.9574C66.8669 10.5199 66.0755 10.2987 65.1464 10.2987Z" fill="#FF4228"/>
  <path d="M80.1739 21.5829H88.9781V24.3898H76.6837V7.69327H80.1739V21.5829Z" fill="#FF4228"/>
  <path d="M91.8883 24.3898V7.69327H104.411V10.5002H95.3785V14.6491H102.487V17.3307H95.3785V21.5804H104.765V24.3873H91.8883V24.3898Z" fill="#FF4228"/>
  <path d="M122.246 7.69327V24.3898H118.249L112.404 14.5729L110.962 11.8397H110.937L111.038 14.7229V24.3873H107.902V7.69327H111.874L117.718 17.4831L119.161 20.2409H119.213L119.112 17.3577V7.69327H122.248H122.246Z" fill="#FF4228"/>
  <path d="M133.048 7.69327C135.664 7.69327 137.686 8.41343 139.119 9.85622C140.552 11.299 141.27 13.3612 141.27 16.0428C141.27 18.7243 140.552 20.7644 139.119 22.2146C137.686 23.6647 135.661 24.3898 133.048 24.3898H126.596V7.69327H133.048ZM132.871 21.6074C134.457 21.6074 135.649 21.1306 136.45 20.1769C137.251 19.2233 137.652 17.8444 137.652 16.0403C137.652 14.2362 137.251 12.8573 136.45 11.9037C135.649 10.95 134.457 10.4732 132.871 10.4732H130.089V21.605H132.871V21.6074Z" fill="#FF4228"/>
  <path d="M8.57313 21.8262C7.0566 21.8262 5.7023 21.3567 4.7216 20.376C2.10393 17.7584 3.12396 12.4813 6.99515 8.61251C10.8639 4.74132 16.141 3.72375 18.7587 6.33895C21.3763 8.95662 20.3563 14.2337 16.4851 18.1025C14.0665 20.521 11.0974 21.8262 8.57313 21.8262ZM14.885 6.03663C12.6901 6.03663 10.0233 7.241 7.82347 9.44083C4.4119 12.8524 3.39187 17.3848 5.54991 19.5428C7.7104 21.7008 12.2403 20.6808 15.6519 17.2692C19.0635 13.8577 20.0835 9.3253 17.9254 7.16727C17.1586 6.4004 16.0918 6.03417 14.8826 6.03417L14.885 6.03663Z" fill="#FF4228"/>
  <path d="M6.32414 20.3195L8.34208 22.3375C9.35473 23.3501 10.9376 23.6942 12.8032 23.3059C14.7572 22.9003 16.7604 21.7476 18.4441 20.0639C20.1277 18.3802 21.278 16.377 21.686 14.423C22.0744 12.5575 21.7303 10.9746 20.7176 9.96192L18.6997 7.94398V6.28244L21.5484 9.13115C22.8486 10.4314 23.3082 12.3977 22.8363 14.6614C22.3841 16.8367 21.1182 19.0512 19.2748 20.8947C17.4314 22.7381 15.2168 24.0039 13.0416 24.4562C12.4591 24.5766 11.8987 24.6356 11.3628 24.6356C9.8119 24.6356 8.47726 24.1342 7.51131 23.1682L4.6626 20.3195H6.32414Z" fill="#FF4228"/>
  <path d="M7.40811 9.02787C9.07457 7.36141 11.0016 6.24553 12.8327 5.75149V0L0 7.47202V22.33L4.78062 19.5501C2.86591 17.0431 3.95968 12.4763 7.41057 9.02787H7.40811ZM18.8595 20.4792C15.212 24.1268 10.3183 25.1443 7.92673 22.7528L5.60402 20.4301L0.587438 23.3476L13.4201 30.7533L26.2528 23.3476L19.7148 19.5452C19.4494 19.8648 19.1643 20.1769 18.8619 20.4792H18.8595ZM16.0698 17.6871C16.1263 17.6305 16.1779 17.574 16.232 17.5199C16.1779 17.5765 16.1238 17.633 16.0698 17.6871ZM14.0076 0V5.51799C15.7281 5.30415 17.2815 5.6925 18.3433 6.75431C18.4638 6.87475 18.5744 7.00256 18.6776 7.13529L18.7022 7.11071L21.1355 9.54403C23.1362 11.5448 22.7503 15.2955 20.4375 18.6039L26.8427 22.3276V7.43269L14.0076 0Z" fill="#FF4228"/>
</svg>